<svg width="100%" viewBox="0 0 680 740" xmlns="http://www.w3.org/2000/svg" font-family="'Segoe UI', Arial, sans-serif">
  <defs>
    <marker id="arrow" viewBox="0 0 10 10" refX="8" refY="5" markerWidth="6" markerHeight="6" orient="auto-start-reverse">
      <path d="M2 1L8 5L2 9" fill="none" stroke="context-stroke" stroke-width="1.5" stroke-linecap="round" stroke-linejoin="round"/>
    </marker>
  </defs>

  <!-- Background -->
  <rect width="680" height="740" fill="#0F1A2E" rx="0"/>

  <!-- ── TITLE ── -->
  <text x="340" y="38" text-anchor="middle" font-size="18" font-weight="700" fill="#E8F4FF" letter-spacing="0.5">Alyra — System Architecture</text>
  <text x="340" y="58" text-anchor="middle" font-size="11" fill="#6B8BAF">Universal Predictive Energy Platform · Nigeria</text>

  <!-- ══════════════════════════════════════════════
       ROW 1 — USER INTERFACE LAYER
  ══════════════════════════════════════════════ -->

  <!-- Section label -->
  <text x="40" y="92" font-size="10" font-weight="600" fill="#4A9EFF" letter-spacing="1.5">USER INTERFACE LAYER</text>
  <line x1="40" y1="96" x2="640" y2="96" stroke="#1E3A5A" stroke-width="0.5"/>

  <!-- USSD / Feature Phone -->
  <rect x="44" y="106" width="138" height="62" rx="8" fill="#112240" stroke="#1D6FA4" stroke-width="1"/>
  <rect x="44" y="106" width="138" height="14" rx="8" fill="#1D6FA4"/>
  <rect x="44" y="112" width="138" height="8" fill="#1D6FA4"/>
  <text x="113" y="117" text-anchor="middle" font-size="9" font-weight="700" fill="#ADDDFF">USSD / Feature Phone</text>
  <text x="113" y="135" text-anchor="middle" font-size="10" fill="#6DAEDB">Dial *123#</text>
  <text x="113" y="150" text-anchor="middle" font-size="9" fill="#4A7FA0">Works offline · No smartphone</text>
  <text x="113" y="163" text-anchor="middle" font-size="9" fill="#4A7FA0">needed</text>

  <!-- SMS Alerts -->
  <rect x="200" y="106" width="138" height="62" rx="8" fill="#112240" stroke="#1D6FA4" stroke-width="1"/>
  <rect x="200" y="106" width="138" height="14" rx="8" fill="#1D6FA4"/>
  <rect x="200" y="112" width="138" height="8" fill="#1D6FA4"/>
  <text x="269" y="117" text-anchor="middle" font-size="9" font-weight="700" fill="#ADDDFF">SMS Alerts</text>
  <text x="269" y="135" text-anchor="middle" font-size="10" fill="#6DAEDB">Predictive Notifications</text>
  <text x="269" y="150" text-anchor="middle" font-size="9" fill="#4A7FA0">Low balance · Depletion</text>
  <text x="269" y="163" text-anchor="middle" font-size="9" fill="#4A7FA0">warnings</text>

  <!-- Mobile App (optional) -->
  <rect x="356" y="106" width="138" height="62" rx="8" fill="#0D1D33" stroke="#1D4A6A" stroke-width="1" stroke-dasharray="4 2"/>
  <text x="425" y="126" text-anchor="middle" font-size="9" font-weight="700" fill="#4A7FA0">Mobile App</text>
  <text x="425" y="142" text-anchor="middle" font-size="9" fill="#2E5470">Dashboard · Analytics</text>
  <text x="425" y="157" text-anchor="middle" font-size="8" fill="#1E3A50">(Optional – smartphone)</text>

  <!-- Provider Dashboard -->
  <rect x="502" y="106" width="138" height="62" rx="8" fill="#112240" stroke="#1D6FA4" stroke-width="1"/>
  <rect x="502" y="106" width="138" height="14" rx="8" fill="#1D6FA4"/>
  <rect x="502" y="112" width="138" height="8" fill="#1D6FA4"/>
  <text x="571" y="117" text-anchor="middle" font-size="9" font-weight="700" fill="#ADDDFF">Provider Dashboard</text>
  <text x="571" y="135" text-anchor="middle" font-size="10" fill="#6DAEDB">DisCos · Solar PAYG</text>
  <text x="571" y="150" text-anchor="middle" font-size="9" fill="#4A7FA0">Consumption insights</text>
  <text x="571" y="163" text-anchor="middle" font-size="9" fill="#4A7FA0">&amp; usage reports</text>

  <!-- ── Arrows from UI to Core ── -->
  <line x1="113" y1="168" x2="113" y2="222" stroke="#1D6FA4" stroke-width="1.2" marker-end="url(#arrow)"/>
  <line x1="269" y1="168" x2="269" y2="222" stroke="#1D6FA4" stroke-width="1.2" marker-end="url(#arrow)"/>
  <line x1="425" y1="168" x2="425" y2="222" stroke="#1D4A6A" stroke-width="1" stroke-dasharray="3 2" marker-end="url(#arrow)"/>
  <line x1="571" y1="168" x2="571" y2="222" stroke="#1D6FA4" stroke-width="1.2" marker-end="url(#arrow)"/>

  <!-- ══════════════════════════════════════════════
       ROW 2 — ALYRA CORE PLATFORM
  ══════════════════════════════════════════════ -->

  <text x="40" y="218" font-size="10" font-weight="600" fill="#F4A261" letter-spacing="1.5">ALYRA CORE PLATFORM</text>
  <line x1="40" y1="222" x2="640" y2="222" stroke="#3A2A10" stroke-width="0.5"/>

  <!-- Core platform outer container -->
  <rect x="44" y="230" width="596" height="166" rx="12" fill="#0D1B10" stroke="#2E6B3E" stroke-width="1.5"/>

  <!-- Payment Engine -->
  <rect x="60" y="246" width="136" height="134" rx="8" fill="#102A1A" stroke="#2E6B3E" stroke-width="1"/>
  <rect x="60" y="246" width="136" height="16" rx="8" fill="#2E6B3E"/>
  <rect x="60" y="253" width="136" height="9" fill="#2E6B3E"/>
  <text x="128" y="258" text-anchor="middle" font-size="9" font-weight="700" fill="#A8EDBD">Payment Engine</text>
  <text x="128" y="277" text-anchor="middle" font-size="9" fill="#5DBD80">Paycode Generator</text>
  <text x="128" y="292" text-anchor="middle" font-size="9" fill="#3D8A5C">Micro-top-ups ₦50–₦500</text>
  <text x="128" y="307" text-anchor="middle" font-size="9" fill="#3D8A5C">Transaction tracking</text>
  <text x="128" y="322" text-anchor="middle" font-size="9" fill="#3D8A5C">Offline paycode support</text>
  <text x="128" y="337" text-anchor="middle" font-size="9" fill="#3D8A5C">Interswitch integration</text>
  <text x="128" y="352" text-anchor="middle" font-size="9" fill="#3D8A5C">Encrypted transactions</text>
  <text x="128" y="367" text-anchor="middle" font-size="9" fill="#3D8A5C">Payment confirmation</text>

  <!-- Predictive AI Engine -->
  <rect x="212" y="246" width="136" height="134" rx="8" fill="#102A1A" stroke="#2E6B3E" stroke-width="1"/>
  <rect x="212" y="246" width="136" height="16" rx="8" fill="#2E6B3E"/>
  <rect x="212" y="253" width="136" height="9" fill="#2E6B3E"/>
  <text x="280" y="258" text-anchor="middle" font-size="9" font-weight="700" fill="#A8EDBD">Predictive AI Engine</text>
  <text x="280" y="277" text-anchor="middle" font-size="9" fill="#5DBD80">Consumption Forecasting</text>
  <text x="280" y="292" text-anchor="middle" font-size="9" fill="#3D8A5C">Depletion prediction</text>
  <text x="280" y="307" text-anchor="middle" font-size="9" fill="#3D8A5C">Usage pattern analysis</text>
  <text x="280" y="322" text-anchor="middle" font-size="9" fill="#3D8A5C">Smart recharge alerts</text>
  <text x="280" y="337" text-anchor="middle" font-size="9" fill="#3D8A5C">Historical data model</text>
  <text x="280" y="352" text-anchor="middle" font-size="9" fill="#3D8A5C">Optimal top-up suggestions</text>

  <!-- Energy Integration Bus -->
  <rect x="364" y="246" width="136" height="134" rx="8" fill="#102A1A" stroke="#2E6B3E" stroke-width="1"/>
  <rect x="364" y="246" width="136" height="16" rx="8" fill="#2E6B3E"/>
  <rect x="364" y="253" width="136" height="9" fill="#2E6B3E"/>
  <text x="432" y="258" text-anchor="middle" font-size="9" font-weight="700" fill="#A8EDBD">Energy Integration Bus</text>
  <text x="432" y="277" text-anchor="middle" font-size="9" fill="#5DBD80">Multi-Source Connector</text>
  <text x="432" y="292" text-anchor="middle" font-size="9" fill="#3D8A5C">Grid meter API adapter</text>
  <text x="432" y="307" text-anchor="middle" font-size="9" fill="#3D8A5C">Solar PAYG connector</text>
  <text x="432" y="322" text-anchor="middle" font-size="9" fill="#3D8A5C">Remote unit crediting</text>
  <text x="432" y="337" text-anchor="middle" font-size="9" fill="#3D8A5C">Battery % tracking</text>
  <text x="432" y="352" text-anchor="middle" font-size="9" fill="#3D8A5C">Kit activation / lock</text>

  <!-- Analytics & Reporting -->
  <rect x="516" y="246" width="108" height="134" rx="8" fill="#102A1A" stroke="#2E6B3E" stroke-width="1"/>
  <rect x="516" y="246" width="108" height="16" rx="8" fill="#2E6B3E"/>
  <rect x="516" y="253" width="108" height="9" fill="#2E6B3E"/>
  <text x="570" y="258" text-anchor="middle" font-size="9" font-weight="700" fill="#A8EDBD">Analytics Layer</text>
  <text x="570" y="277" text-anchor="middle" font-size="9" fill="#5DBD80">Insights &amp; Reports</text>
  <text x="570" y="292" text-anchor="middle" font-size="9" fill="#3D8A5C">Usage trends</text>
  <text x="570" y="307" text-anchor="middle" font-size="9" fill="#3D8A5C">Provider reports</text>
  <text x="570" y="322" text-anchor="middle" font-size="9" fill="#3D8A5C">Aggregated data</text>
  <text x="570" y="337" text-anchor="middle" font-size="9" fill="#3D8A5C">Govt. reporting</text>
  <text x="570" y="352" text-anchor="middle" font-size="9" fill="#3D8A5C">KPI dashboards</text>

  <!-- Core internal connector arrows -->
  <line x1="196" y1="313" x2="210" y2="313" stroke="#2E6B3E" stroke-width="1" marker-end="url(#arrow)"/>
  <line x1="348" y1="313" x2="362" y2="313" stroke="#2E6B3E" stroke-width="1" marker-end="url(#arrow)"/>
  <line x1="500" y1="313" x2="514" y2="313" stroke="#2E6B3E" stroke-width="1" marker-end="url(#arrow)"/>

  <!-- ── Arrows from Core to Data Layer ── -->
  <line x1="128" y1="396" x2="128" y2="440" stroke="#2E6B3E" stroke-width="1.2" marker-end="url(#arrow)"/>
  <line x1="280" y1="396" x2="280" y2="440" stroke="#2E6B3E" stroke-width="1.2" marker-end="url(#arrow)"/>
  <line x1="432" y1="396" x2="432" y2="440" stroke="#2E6B3E" stroke-width="1.2" marker-end="url(#arrow)"/>
  <line x1="570" y1="396" x2="570" y2="440" stroke="#2E6B3E" stroke-width="1.2" marker-end="url(#arrow)"/>

  <!-- ══════════════════════════════════════════════
       ROW 3 — DATA & PAYMENT LAYER
  ══════════════════════════════════════════════ -->

  <text x="40" y="436" font-size="10" font-weight="600" fill="#E2B96A" letter-spacing="1.5">DATA &amp; PAYMENT LAYER</text>
  <line x1="40" y1="440" x2="640" y2="440" stroke="#3A2E10" stroke-width="0.5"/>

  <!-- PostgreSQL -->
  <rect x="44" y="448" width="160" height="66" rx="8" fill="#1C1A0A" stroke="#8A6F2E" stroke-width="1"/>
  <rect x="44" y="448" width="160" height="14" rx="8" fill="#8A6F2E"/>
  <rect x="44" y="453" width="160" height="9" fill="#8A6F2E"/>
  <text x="124" y="460" text-anchor="middle" font-size="9" font-weight="700" fill="#F5E0A0">PostgreSQL Database</text>
  <text x="124" y="476" text-anchor="middle" font-size="9" fill="#C4A84A">Users · Transactions · Meters</text>
  <text x="124" y="490" text-anchor="middle" font-size="9" fill="#8A7040">Consumption history</text>
  <text x="124" y="504" text-anchor="middle" font-size="9" fill="#8A7040">Prediction models</text>

  <!-- Interswitch Gateway -->
  <rect x="222" y="448" width="160" height="66" rx="8" fill="#1C1A0A" stroke="#8A6F2E" stroke-width="1"/>
  <rect x="222" y="448" width="160" height="14" rx="8" fill="#8A6F2E"/>
  <rect x="222" y="453" width="160" height="9" fill="#8A6F2E"/>
  <text x="302" y="460" text-anchor="middle" font-size="9" font-weight="700" fill="#F5E0A0">Interswitch Gateway</text>
  <text x="302" y="476" text-anchor="middle" font-size="9" fill="#C4A84A">Encrypted payments</text>
  <text x="302" y="490" text-anchor="middle" font-size="9" fill="#8A7040">Card · Transfer · USSD pay</text>
  <text x="302" y="504" text-anchor="middle" font-size="9" fill="#8A7040">Transaction receipts</text>

  <!-- Africa's Talking USSD -->
  <rect x="400" y="448" width="160" height="66" rx="8" fill="#1C1A0A" stroke="#8A6F2E" stroke-width="1"/>
  <rect x="400" y="448" width="160" height="14" rx="8" fill="#8A6F2E"/>
  <rect x="400" y="453" width="160" height="9" fill="#8A6F2E"/>
  <text x="480" y="460" text-anchor="middle" font-size="9" font-weight="700" fill="#F5E0A0">Africa's Talking API</text>
  <text x="480" y="476" text-anchor="middle" font-size="9" fill="#C4A84A">USSD Gateway · SMS</text>
  <text x="480" y="490" text-anchor="middle" font-size="9" fill="#8A7040">Push notifications</text>
  <text x="480" y="504" text-anchor="middle" font-size="9" fill="#8A7040">Feature phone support</text>

  <!-- ── Arrows from Data to Provider Layer ── -->
  <line x1="124" y1="514" x2="124" y2="558" stroke="#8A6F2E" stroke-width="1.2" marker-end="url(#arrow)"/>
  <line x1="302" y1="514" x2="302" y2="558" stroke="#8A6F2E" stroke-width="1.2" marker-end="url(#arrow)"/>
  <line x1="480" y1="514" x2="480" y2="558" stroke="#8A6F2E" stroke-width="1.2" marker-end="url(#arrow)"/>

  <!-- ══════════════════════════════════════════════
       ROW 4 — ENERGY PROVIDER LAYER
  ══════════════════════════════════════════════ -->

  <text x="40" y="554" font-size="10" font-weight="600" fill="#E07070" letter-spacing="1.5">ENERGY PROVIDER LAYER</text>
  <line x1="40" y1="558" x2="640" y2="558" stroke="#3A1010" stroke-width="0.5"/>

  <!-- Grid DisCos -->
  <rect x="44" y="566" width="190" height="72" rx="8" fill="#1E0F0F" stroke="#8A3030" stroke-width="1"/>
  <rect x="44" y="566" width="190" height="14" rx="8" fill="#8A3030"/>
  <rect x="44" y="571" width="190" height="9" fill="#8A3030"/>
  <text x="139" y="578" text-anchor="middle" font-size="9" font-weight="700" fill="#FFADAD">Grid Meter DisCos</text>
  <text x="139" y="596" text-anchor="middle" font-size="10" fill="#E07070">IKEDC · IBEDC · EKEDC</text>
  <text x="139" y="612" text-anchor="middle" font-size="9" fill="#8A4040">Electricity unit crediting</text>
  <text x="139" y="626" text-anchor="middle" font-size="9" fill="#8A4040">Meter token API</text>

  <!-- Solar PAYG -->
  <rect x="252" y="566" width="190" height="72" rx="8" fill="#1E0F0F" stroke="#8A3030" stroke-width="1"/>
  <rect x="252" y="566" width="190" height="14" rx="8" fill="#8A3030"/>
  <rect x="252" y="571" width="190" height="9" fill="#8A3030"/>
  <text x="347" y="578" text-anchor="middle" font-size="9" font-weight="700" fill="#FFADAD">Solar PAYG Providers</text>
  <text x="347" y="596" text-anchor="middle" font-size="10" fill="#E07070">Baobab+ · Bboxx · d.light</text>
  <text x="347" y="612" text-anchor="middle" font-size="9" fill="#8A4040">Solar kit activation</text>
  <text x="347" y="626" text-anchor="middle" font-size="9" fill="#8A4040">Battery % tracking</text>

  <!-- Households -->
  <rect x="460" y="566" width="180" height="72" rx="8" fill="#1E0F0F" stroke="#8A3030" stroke-width="1"/>
  <rect x="460" y="566" width="180" height="14" rx="8" fill="#8A3030"/>
  <rect x="460" y="571" width="180" height="9" fill="#8A3030"/>
  <text x="550" y="578" text-anchor="middle" font-size="9" font-weight="700" fill="#FFADAD">End Users</text>
  <text x="550" y="596" text-anchor="middle" font-size="10" fill="#E07070">Rural &amp; Semi-Urban HHs</text>
  <text x="550" y="612" text-anchor="middle" font-size="9" fill="#8A4040">Irregular income patterns</text>
  <text x="550" y="626" text-anchor="middle" font-size="9" fill="#8A4040">Feature phone users</text>

  <!-- ── Flow arrows: Providers → Households ── -->
  <line x1="234" y1="602" x2="250" y2="602" stroke="#8A3030" stroke-width="1" marker-end="url(#arrow)"/>
  <line x1="442" y1="602" x2="458" y2="602" stroke="#8A3030" stroke-width="1" marker-end="url(#arrow)"/>

  <!-- ══════════════════════════════════════════════
       LEGEND
  ══════════════════════════════════════════════ -->

  <line x1="40" y1="658" x2="640" y2="658" stroke="#1E3A5A" stroke-width="0.5"/>
  <text x="40" y="674" font-size="9" font-weight="600" fill="#4A9EFF">LEGEND</text>

  <!-- Blue: UI layer -->
  <rect x="90" y="664" width="10" height="10" rx="2" fill="#1D6FA4"/>
  <text x="106" y="673" font-size="9" fill="#6B8BAF">UI Layer</text>

  <!-- Green: Core -->
  <rect x="180" y="664" width="10" height="10" rx="2" fill="#2E6B3E"/>
  <text x="196" y="673" font-size="9" fill="#6B8BAF">Core Platform</text>

  <!-- Gold: Data -->
  <rect x="290" y="664" width="10" height="10" rx="2" fill="#8A6F2E"/>
  <text x="306" y="673" font-size="9" fill="#6B8BAF">Data &amp; Payments</text>

  <!-- Red: Providers -->
  <rect x="410" y="664" width="10" height="10" rx="2" fill="#8A3030"/>
  <text x="426" y="673" font-size="9" fill="#6B8BAF">Energy Providers</text>

  <!-- Dashed: optional -->
  <rect x="530" y="664" width="10" height="10" rx="2" fill="none" stroke="#1D4A6A" stroke-dasharray="3 2"/>
  <text x="546" y="673" font-size="9" fill="#6B8BAF">Optional</text>

  <!-- Footer tagline -->
  <text x="340" y="704" text-anchor="middle" font-size="10" fill="#2E5470" font-style="italic">Predictive · Inclusive · Offline-First · Multi-Source</text>
  <text x="340" y="720" text-anchor="middle" font-size="9" fill="#1E3A50">MVP focuses on paycode → payment → credit → prediction → alert loop</text>
</svg>
